<svg version="1.2" xmlns="http://www.w3.org/2000/svg" viewBox="0 0 353 353" width="353" height="353">
	<style>
		.s0 { fill: #000000 } 
	</style>
	<g id="svgg">
	</g>
	<path id="path0" fill-rule="evenodd" class="s0" d="m317.14 0.1c0.31 0.12 2.45 0.16 5.09 0.11 4.78-0.1 5.77 0.05 6.75 1.02 0.17 0.17 0.95 0.62 1.73 1.01 3.61 1.75 6.29 4.99 6.84 8.25 0.12 0.75 0.31 1.78 0.41 2.3 0.34 1.76-0.43 5.65-1.5 7.6-1.42 2.58-5.14 6.84-6.65 7.62-0.35 0.18-0.9 0.56-1.23 0.83-0.33 0.27-0.99 0.6-1.47 0.73-0.94 0.25-2.98 1.31-3.66 1.91-0.24 0.2-0.78 0.46-1.21 0.58-0.43 0.12-1.1 0.45-1.48 0.74-0.39 0.29-1.04 0.69-1.45 0.89-0.62 0.31-2.68 2.06-4.31 3.65-5.94 5.81-6.91 15.89-2.25 23.39 0.1 0.17 0.47 0.84 0.8 1.48 1.02 1.94 4.6 7.42 5.98 9.12 0.42 0.53 1.22 1.67 1.77 2.55 0.55 0.87 1.33 2.02 1.74 2.54 0.4 0.53 0.93 1.38 1.18 1.91 0.25 0.52 0.77 1.46 1.17 2.07 0.39 0.62 0.71 1.19 0.71 1.28 0 0.08 0.39 0.82 0.87 1.64 0.47 0.81 1.1 2.1 1.39 2.86 0.29 0.75 0.86 2.23 1.27 3.28 0.4 1.05 1 3.01 1.33 4.35 1.87 7.52 2.34 19.36 0.96 24.05-0.17 0.58-0.31 1.34-0.31 1.7 0 0.36-0.2 1.32-0.45 2.14-0.25 0.81-0.62 2.1-0.83 2.86-0.65 2.35-3.71 9.1-4.76 10.5-0.26 0.34-0.72 1.16-1.03 1.81-0.3 0.64-0.87 1.55-1.26 2.01-0.39 0.46-1.1 1.41-1.57 2.11-2.68 3.95-12.63 13.21-15.66 14.57-0.35 0.15-1.57 0.87-2.73 1.6-1.16 0.73-2.18 1.33-2.27 1.33-0.55 0-0.34 1.89 0.44 3.82 0.21 0.52 0.5 1.47 0.65 2.12 0.14 0.64 0.39 1.41 0.54 1.72 0.5 0.97 1.15 4.62 1.37 7.7 0.13 1.64 0.31 3.94 0.42 5.1 0.66 6.98 0.71 9.63 0.25 14.45-0.25 2.55-0.55 6.5-0.68 8.77-0.12 2.28-0.31 4.9-0.42 5.83-0.11 0.94-0.25 2.46-0.31 3.4-0.06 0.93-0.2 2.01-0.32 2.4-0.43 1.49-0.98 10.1-0.94 14.79 0.02 3.05 0.49 6.49 1.24 9.1 0.27 0.94 0.61 2.41 0.75 3.29 0.15 0.88 0.38 1.83 0.53 2.12 0.15 0.29 0.39 1.05 0.54 1.69 0.15 0.63 0.53 1.57 0.86 2.09 0.33 0.51 0.66 1.22 0.73 1.56 0.15 0.69 2.51 5.38 2.97 5.9 0.15 0.17 0.52 0.84 0.83 1.48 0.95 1.99 1.89 3.52 2.71 4.42 0.43 0.48 0.99 1.28 1.24 1.78 0.25 0.5 0.78 1.35 1.18 1.89 0.39 0.54 0.71 1.07 0.71 1.17 0 0.1 0.43 0.83 0.96 1.63 0.52 0.8 0.95 1.51 0.95 1.58 0 0.07 0.28 0.71 0.62 1.41 1.66 3.4 2.1 4.94 2.35 8.18 0.13 1.69 0.33 3.41 0.45 3.82 0.52 1.9 1.06 16.92 0.76 21.1-0.1 1.28-0.26 4.38-0.37 6.89-0.11 2.51-0.38 6.27-0.61 8.37-0.23 2.1-0.48 4.44-0.56 5.2-0.07 0.76-0.4 2.24-0.73 3.29-0.34 1.05-0.72 2.62-0.86 3.5-0.14 0.87-0.47 1.97-0.73 2.43-0.28 0.49-0.59 1.57-0.72 2.51-0.13 0.91-0.33 1.83-0.44 2.04-0.12 0.21-0.36 0.85-0.55 1.42-0.19 0.57-0.7 1.51-1.14 2.09-0.43 0.59-1.28 1.74-1.88 2.56-1.8 2.48-5.42 5.2-7.47 5.62-0.64 0.13-1.54 0.37-2.01 0.54-0.47 0.16-1.8 0.48-2.97 0.71-1.16 0.22-2.74 0.57-3.5 0.78-2.51 0.68-7.57 0.54-10.68-0.3-1.39-0.38-2.68-0.68-2.87-0.68-0.18-0.01-0.61-0.15-0.94-0.32-0.33-0.17-1-0.42-1.48-0.55-2.12-0.56-4.81-2.83-6.01-5.06-0.33-0.62-0.74-1.38-0.91-1.68-0.57-1.04-1.07-3.3-1.06-4.79 0.03-6.72 3.9-12.97 9.99-16.12 2.36-1.22 3.36-2.2 3.78-3.69 1.35-4.76 0.33-18.03-1.72-22.44-0.33-0.73-0.61-1.43-0.61-1.57 0-0.42-2.25-4.05-3.01-4.86-0.74-0.79-5.66-4.63-6.5-5.07-0.27-0.15-0.84-0.57-1.27-0.95-0.43-0.39-1.46-1.09-2.29-1.57-4.74-2.75-14.22-11.77-19.33-18.38-0.71-0.94-1.51-1.94-1.76-2.23-0.59-0.7-5.16-7.62-5.62-8.52-0.2-0.39-0.59-0.99-0.88-1.33-0.29-0.35-0.89-1.39-1.34-2.33-0.45-0.94-1.17-2.24-1.6-2.88-0.42-0.64-1.14-1.86-1.59-2.71-0.76-1.43-1.75-2.94-3.74-5.71-1.17-1.62-3.58-3.56-4.87-3.92-0.42-0.11-1.11-0.43-1.53-0.7-0.42-0.27-1.24-0.55-1.82-0.63-0.58-0.08-1.54-0.36-2.12-0.63-0.97-0.43-2.23-0.65-6.79-1.16-1.72-0.2-7.54 0.23-9.64 0.71-0.76 0.17-3.48 0.7-6.05 1.17-2.56 0.47-5.28 1.02-6.04 1.2-0.76 0.19-2.03 0.48-2.81 0.63-0.79 0.16-1.74 0.45-2.1 0.64-0.36 0.18-1.15 0.48-1.74 0.66-0.59 0.17-1.51 0.54-2.04 0.81-0.53 0.26-1.44 0.55-2.02 0.63-0.58 0.08-1.27 0.27-1.52 0.43-0.25 0.16-0.92 0.41-1.48 0.54-0.92 0.22-3.31 1.25-5.38 2.31-0.41 0.21-1.07 0.45-1.48 0.54-0.41 0.08-1.2 0.38-1.75 0.66-0.55 0.28-1.5 0.64-2.12 0.8-0.61 0.16-1.45 0.48-1.86 0.72-0.41 0.23-1.84 0.68-3.18 1-1.34 0.31-2.98 0.75-3.65 0.97-0.67 0.22-1.43 0.41-1.7 0.41-0.26 0-1.08 0.28-1.81 0.62-0.72 0.35-1.92 0.74-2.65 0.87-1.39 0.25-4.52 1.1-5.51 1.51-1.75 0.7-4.07 4.4-4.45 7.07-0.11 0.82-0.39 2.34-0.62 3.39-0.53 2.45-0.78 5.51-0.89 10.83-0.05 2.81-0.17 4.43-0.34 4.75-0.16 0.29-0.21 0.78-0.12 1.25 0.19 1.05 0.19 2.01 0 3.56-0.09 0.8-0.06 1.99 0.11 3.08 0.47 3.19 0.54 7.34 0.44 24.67-0.05 6.87-0.15 11.01-0.29 11.35-0.3 0.71-0.53 2.83-0.75 6.68-0.09 1.75-0.28 3.37-0.4 3.6-0.13 0.23-0.34 1.19-0.47 2.12-0.55 3.84-0.88 5.31-1.38 6.28-0.3 0.57-0.54 1.22-0.54 1.45 0 0.57-2.22 5.09-2.82 5.74-1.05 1.13-3.32 3.09-5.03 4.33-1.18 0.85-5.93 3.09-7.21 3.4-5.1 1.23-8.15 1.68-11.02 1.65-5.43-0.06-11.19-1.22-12.62-2.54-0.35-0.33-1.26-1.1-2.02-1.73-1.38-1.14-1.76-1.64-2.94-3.85-1.35-2.54-1.82-6.78-0.99-9.08 0.18-0.51 0.33-1.15 0.33-1.41 0-0.26 0.13-0.59 0.3-0.73 0.17-0.14 0.56-0.89 0.86-1.67 1.27-3.28 3.76-6.3 6.24-7.56 0.77-0.39 1.52-0.91 1.66-1.15 0.15-0.24 0.75-0.68 1.34-0.98 1.12-0.57 1.88-1.7 1.89-2.82 0.01-0.27 0.11-0.69 0.25-0.94 0.3-0.56 0.57-2.34 0.81-5.46 0.11-1.34 0.3-2.82 0.44-3.28 0.27-0.92 0.15-5.05-0.22-7.64-0.11-0.82-0.3-2.39-0.41-3.5-0.12-1.11-0.26-2.25-0.33-2.54-0.29-1.3-0.52-3.66-0.53-5.49-0.01-3.05-0.43-8.08-0.77-9.15-0.16-0.53-0.49-2.3-0.73-3.92-0.23-1.63-0.52-3.29-0.63-3.71-0.53-1.95-1.23-5.1-1.36-6.13-0.08-0.63-0.38-1.7-0.66-2.38-0.29-0.68-0.52-1.39-0.52-1.57 0-0.93-3.55-6.56-4.28-6.79-1.14-0.36-2.8 0.95-2.43 1.92 0.07 0.18-0.05 0.78-0.27 1.34-0.46 1.15-1.16 5.63-1.61 10.22-0.17 1.69-0.36 3.31-0.43 3.6-0.08 0.29-0.22 1.77-0.32 3.29-0.65 9.65-0.84 11.87-1.14 13.07-0.18 0.74-0.43 2.59-0.55 4.1q-0.36 4.42-1.17 8.81c-0.18 0.99-0.42 3.66-0.52 5.93-0.17 3.48-0.28 4.41-0.73 5.84-0.29 0.93-0.6 2.5-0.67 3.49q-0.14 1.8-0.51 2.34c-0.48 0.68-0.85 1.99-0.85 3.07-0.01 1.1-0.43 2.65-1.13 4.2-0.31 0.67-0.56 1.3-0.56 1.39 0 0.16-0.85 1.55-1.7 2.79-0.2 0.29-0.48 0.9-0.63 1.34-0.15 0.45-0.68 1.26-1.19 1.81-0.51 0.54-1.38 1.5-1.94 2.12-0.56 0.63-1.59 1.53-2.29 2-0.69 0.46-1.46 1.02-1.7 1.23-0.45 0.41-5.65 2.1-6.44 2.1-0.26 0-0.74 0.14-1.08 0.32-2.02 1.04-14.07 0.99-17.28-0.07-5.08-1.68-7.39-3.7-8.58-7.49-0.38-1.21-0.79-2.43-0.9-2.73-0.52-1.3-0.46-3.46 0.13-5.43 1.26-4.13 1.21-4.02 3.54-7.44 1.29-1.9 4.62-4.77 5.91-5.09 0.52-0.13 1.77-0.89 3.55-2.17 0.49-0.36 1.15-1.1 1.46-1.65 0.32-0.56 0.76-1.22 0.98-1.47 1.81-2.03 2.83-20.03 1.67-29.55-0.12-0.99-0.32-3.9-0.44-6.47-0.24-4.93-0.35-6.18-0.65-7.21-0.3-1-0.5-2.49-1.16-8.37-0.3-2.7-0.94-7.29-1.35-9.65-0.1-0.59-0.52-2.4-0.93-4.03-1.44-5.69-2.07-8.55-2.07-9.36 0-0.45-0.19-1.13-0.41-1.5-0.23-0.38-0.57-1.28-0.76-2.02-0.19-0.73-0.52-1.62-0.73-1.97-0.2-0.35-0.44-1.05-0.52-1.56-0.07-0.51-0.31-1.32-0.53-1.8-0.21-0.48-0.46-1.12-0.54-1.41-0.21-0.75-1.55-3.48-2.45-4.98-0.42-0.7-0.89-1.61-1.05-2.01-0.16-0.41-0.61-1.35-1-2.09-0.38-0.74-0.7-1.5-0.7-1.7 0-0.19-0.23-0.79-0.51-1.32-0.29-0.53-0.58-1.34-0.66-1.8-0.15-0.81-0.88-2.68-1.89-4.86-0.27-0.59-0.56-1.4-0.64-1.81-0.08-0.41-0.37-1.74-0.65-2.97-0.28-1.22-0.56-2.79-0.64-3.49-0.07-0.7-0.26-1.71-0.42-2.23-0.16-0.53-0.36-1.43-0.44-2.02-0.08-0.58-0.28-1.44-0.45-1.9-0.16-0.47-0.44-2.71-0.61-4.99-0.17-2.27-0.35-4.37-0.41-4.66-0.05-0.29-0.15-3.24-0.21-6.55-0.07-3.31-0.2-6.17-0.3-6.36-0.09-0.19-0.24-2.4-0.32-4.91-0.11-3.46-0.25-4.97-0.57-6.25-0.23-0.93-0.51-2.39-0.62-3.24-0.52-4.1-2.9-8.22-5.93-10.28-0.64-0.44-2.18-1.49-3.43-2.33-5.24-3.57-7.98-5.98-11.94-10.52-1.05-1.2-2.32-2.63-2.81-3.17-0.5-0.54-1.06-1.32-1.25-1.74-0.2-0.41-0.83-1.45-1.41-2.3-1.23-1.83-2.7-4.59-2.7-5.07 0-0.19-0.33-0.93-0.73-1.66-0.4-0.73-0.79-1.7-0.87-2.14-0.09-0.45-0.32-1.15-0.53-1.56-0.2-0.41-0.44-1.22-0.52-1.8-0.08-0.58-0.23-1.42-0.35-1.86-0.11-0.44-0.29-1.72-0.39-2.86-0.11-1.13-0.24-2.25-0.3-2.49-0.05-0.23-0.1-0.55-0.11-0.71q-0.03-0.28-0.44-0.18c-0.43 0.11-0.43 0.04-0.38-4.91 0.05-3.92 0.12-5 0.33-4.96 0.43 0.09 0.66-0.82 1-4.04 0.31-2.97 0.7-4.78 1.15-5.32 0.13-0.15 0.29-0.75 0.36-1.32 0.08-0.57 0.32-1.35 0.54-1.74 0.22-0.39 0.6-1.47 0.84-2.41 0.24-0.93 0.58-2.02 0.74-2.41 0.36-0.86 0.41-6.21 0.09-8.62-0.28-2.1-0.67-12.7-0.74-20.21-0.06-6.26 0.07-8.87 0.66-12.83 0.18-1.22 0.45-3.08 0.6-4.13 0.49-3.4 0.54-3.6 0.98-4.2 0.24-0.33 0.57-1.05 0.74-1.59 0.85-2.79 4-4.01 6.98-2.7 2.06 0.9 4.49 2.17 5.28 2.76 0.48 0.35 1.18 0.83 1.55 1.06 2.84 1.78 9.19 6.98 11.06 9.05 0.5 0.56 1 1.02 1.11 1.02 0.35 0 3 2.13 5.71 4.56 5.15 4.65 5.78 5 8.27 4.6 0.75-0.13 2.19-0.29 3.18-0.36 0.99-0.07 1.99-0.25 2.22-0.4 0.88-0.55 9.94-1.38 13.89-1.27 4.72 0.13 10.05 0.85 10.42 1.41 0.07 0.11 0.21 0.18 0.32 0.16 0.46-0.1 4.96 0.26 5.95 0.47 1.29 0.26 2.82-0.16 3.57-0.99 0.23-0.26 0.75-0.69 1.16-0.97 0.41-0.27 1.55-1.22 2.53-2.1 0.98-0.89 2.04-1.8 2.36-2.03 0.99-0.73 4.68-3.89 6.67-5.72 2.76-2.53 4.45-3.95 5.66-4.7 0.58-0.37 1.31-0.91 1.62-1.2 0.52-0.49 2.29-1.64 3.89-2.52 0.35-0.2 0.85-0.55 1.11-0.79 0.25-0.24 0.79-0.55 1.19-0.69 0.41-0.14 0.79-0.33 0.86-0.44 0.2-0.3 2.99-1.17 4.28-1.33 3.2-0.4 5.31 2.17 5.98 7.3 0.17 1.26 0.45 2.95 0.62 3.75 0.18 0.8 0.43 2.51 0.56 3.79 0.13 1.29 0.33 3.03 0.44 3.89 0.42 3.4 0.07 19.36-0.58 25.91-0.58 5.9-0.63 8.95-0.13 10.01 0.23 0.5 0.49 1.28 0.57 1.73 0.08 0.45 0.38 1.17 0.66 1.59 0.27 0.42 0.65 1.47 0.83 2.31 0.18 0.86 0.47 1.83 0.65 2.18 0.18 0.34 0.41 1.32 0.52 2.16 0.11 0.85 0.35 1.97 0.54 2.5 1.58 4.42 1.75 13.89 0.35 19.08-0.24 0.88-0.6 2.36-0.8 3.29-0.21 0.93-0.54 2.04-0.75 2.46-0.21 0.42-0.49 1.23-0.62 1.8-0.31 1.28-1.77 4.56-2.54 5.71-0.31 0.46-0.77 1.27-1 1.8-0.24 0.52-0.92 1.62-1.52 2.44-2.31 3.18-2.43 3.67-1.58 6.4 0.49 1.56 0.66 1.86 1.35 2.32 0.43 0.28 0.91 0.75 1.07 1.05 0.51 0.95 2.05 1.99 4.27 2.88 1.2 0.48 2.52 1.09 2.93 1.34 0.41 0.26 1.08 0.57 1.48 0.7 2.96 0.9 3.94 1.15 5.62 1.41 5.79 0.92 21.53 0.59 25.03-0.52 0.7-0.22 2.23-0.49 3.4-0.6 1.18-0.12 2.51-0.36 2.95-0.55 0.45-0.19 1.49-0.44 2.31-0.57 0.81-0.13 2.25-0.46 3.18-0.74 0.94-0.28 2.57-0.61 3.62-0.74 1.06-0.13 2.33-0.41 2.82-0.63 0.49-0.23 1.54-0.56 2.33-0.74 0.79-0.19 1.59-0.47 1.78-0.64 0.37-0.34 1.94-0.83 3.37-1.05 0.53-0.08 1.2-0.28 1.51-0.43 0.3-0.16 1.06-0.35 1.69-0.42 0.63-0.08 1.56-0.37 2.06-0.64 0.5-0.28 1.42-0.59 2.04-0.71 0.62-0.11 1.69-0.41 2.37-0.66 0.69-0.25 1.83-0.56 2.53-0.68 0.7-0.12 2.13-0.48 3.18-0.81 1.05-0.32 2.33-0.65 2.86-0.73 0.52-0.09 1.41-0.34 1.97-0.56 1.38-0.54 2.39-0.75 5.03-1.04 1.22-0.13 2.84-0.38 3.6-0.56 0.76-0.17 2.22-0.4 3.26-0.5 1.03-0.1 2.31-0.27 2.86-0.4 2.14-0.48 5.37-0.85 8.3-0.97 1.69-0.06 3.51-0.16 4.03-0.22 2.03-0.21 12.36 0.31 14.63 0.74 1.23 0.23 2.76 0.51 3.4 0.63 0.64 0.12 2.07 0.31 3.18 0.42 1.11 0.11 2.92 0.4 4.03 0.65 1.11 0.24 2.49 0.53 3.07 0.65 0.58 0.12 1.43 0.41 1.88 0.64 0.46 0.24 1.89 0.67 3.19 0.94 1.29 0.28 3.21 0.71 4.26 0.96 2.16 0.5 6.02 0.44 7.21-0.12 0.35-0.16 1.1-0.39 1.66-0.52 0.57-0.12 1.38-0.4 1.81-0.61 0.42-0.21 1.05-0.46 1.4-0.54 0.34-0.08 0.87-0.33 1.17-0.54 0.31-0.22 1.09-0.63 1.74-0.92 3.26-1.44 7.19-5.09 9.23-8.55 0.61-1.04 1.21-2 1.33-2.14 0.79-0.92 1.78-5.1 2.05-8.68 0.53-6.86-2.63-14.65-9.88-24.35-3.35-4.49-4.09-5.52-4.27-5.93-0.19-0.45-0.7-1.28-1.76-2.88-0.6-0.91-2.28-4.19-3.41-6.68-0.32-0.7-0.8-1.74-1.07-2.33-0.27-0.58-0.75-2.01-1.07-3.18-0.31-1.17-0.74-2.6-0.95-3.18-0.2-0.58-0.48-1.78-0.61-2.65-0.14-0.88-0.39-2.07-0.56-2.64-0.7-2.37-0.32-14.09 0.54-16.76 0.22-0.7 0.56-1.95 0.75-2.76 0.19-0.82 0.47-1.69 0.63-1.94 0.16-0.24 0.45-1.05 0.64-1.8 0.19-0.74 0.47-1.54 0.62-1.77 0.15-0.24 0.39-0.81 0.54-1.28 0.57-1.8 3.66-7.59 4.36-8.17 0.17-0.14 0.31-0.33 0.31-0.41 0-1.11 6.37-8.29 9.25-10.42 0.69-0.5 1.77-1.36 2.41-1.9 0.64-0.54 1.4-1.06 1.69-1.15 0.58-0.18 2.28-1.26 3.3-2.09 0.35-0.28 0.97-0.67 1.37-0.86 0.41-0.19 0.98-0.49 1.28-0.66 0.29-0.17 0.81-0.31 1.16-0.32 0.35 0 1.12-0.24 1.7-0.53 0.58-0.29 1.17-0.52 1.31-0.52 0.13 0 0.53-0.24 0.87-0.53 0.34-0.29 1.09-0.64 1.66-0.78 0.57-0.15 1.12-0.33 1.22-0.42 0.1-0.08 0.43-0.06 0.72 0.05zm-276.96 83.02c-0.06 0.07-0.86 0.21-1.75 0.33-2.41 0.3-3.92 1.2-6.2 3.73-3.12 3.46-3.96 6.53-3.14 11.51 0.65 3.95 5.31 9.32 8.1 9.33 0.33 0 1.13 0.14 1.78 0.32 5.12 1.37 11.28-1.55 13.85-6.58 2.86-5.59 0.28-14.31-5.1-17.23-0.32-0.18-0.83-0.44-1.12-0.59-0.29-0.15-1.41-0.43-2.49-0.61-2.01-0.34-3.7-0.43-3.93-0.21zm54.33-0.05c-0.06 0.07-0.87 0.24-1.8 0.37-1.25 0.18-1.98 0.43-2.85 0.96-0.65 0.39-1.28 0.71-1.4 0.71-0.13 0-0.46 0.31-0.74 0.67-0.28 0.37-0.96 1.1-1.52 1.63-2.4 2.28-3.22 5.24-2.85 10.29 0.1 1.39 0.27 2.72 0.38 2.97 1.54 3.51 5.27 6.98 7.9 7.36 0.72 0.11 1.64 0.29 2.05 0.41 1.06 0.31 3.09 0.26 4.45-0.1 0.64-0.18 1.39-0.32 1.67-0.32 3.75-0.02 9.25-8.03 8.67-12.62-0.25-1.96-0.83-4.21-1.32-5.15-0.3-0.55-0.54-1.08-0.54-1.17 0-0.1-0.49-0.67-1.08-1.28-0.6-0.6-1.42-1.49-1.82-1.98-0.95-1.16-2.93-2.18-4.72-2.44-2.06-0.29-4.34-0.45-4.48-0.31zm128.1 154.42c7.07 1.84 8.26 2.82 12.57 10.38 0.47 0.82 1.26 2.3 1.76 3.29 0.5 0.99 1.17 2.09 1.48 2.44 0.31 0.35 0.76 1.02 0.99 1.48 0.94 1.82 7.35 11.26 8.86 13.03 3.38 3.97 7.02 8.05 9.2 10.33 1.62 1.68 1.72 2 1.69 5.06-0.02 1.51-0.19 2.76-0.58 4.35-0.3 1.22-0.55 2.46-0.55 2.75 0 0.29-0.37 1.63-0.83 2.97-0.45 1.34-0.99 3.01-1.19 3.71-0.19 0.7-0.74 1.97-1.2 2.83-0.46 0.85-1.02 2.09-1.23 2.75-0.38 1.15-1.51 3.76-2.32 5.34-0.21 0.41-0.6 1.32-0.87 2.02-0.27 0.7-0.57 1.38-0.67 1.51-0.1 0.12-0.36 0.74-0.58 1.37-0.48 1.37-3.03 6.86-4.22 9.1-2.11 3.93-3.74 6.76-5.45 9.4-1.85 2.87-5.8 6.34-8.59 7.54-0.29 0.13-0.67 0.32-0.85 0.42-0.17 0.11-0.7 0.29-1.16 0.4-0.47 0.12-1.28 0.36-1.81 0.55-1.04 0.36-3.87 0.9-6.36 1.19-2.58 0.31-13.8 0.12-15.8-0.26-4.53-0.87-8.36-2.97-9.55-5.23-0.28-0.54-0.8-1.35-1.15-1.82-3.17-4.26 0.99-15.7 6.77-18.61 0.41-0.21 1.03-0.53 1.36-0.72 0.33-0.18 1.26-0.41 2.07-0.51 0.8-0.1 1.73-0.33 2.07-0.5 0.33-0.17 1.69-0.42 3.02-0.56 1.72-0.17 2.69-0.37 3.37-0.71 0.52-0.27 1.38-0.68 1.9-0.92 2.49-1.13 8.76-17.96 8.21-22.04-0.66-5.01-1.73-7.25-5.76-12.05-0.49-0.58-1.12-1.4-1.4-1.82-0.29-0.42-0.91-1.23-1.39-1.8-3.06-3.61-5.73-7-6.25-7.95-0.19-0.34-0.78-1.12-1.31-1.74-0.53-0.62-1.27-1.65-1.64-2.29-0.37-0.63-0.89-1.44-1.15-1.79-0.27-0.35-1.25-2.21-2.19-4.13-2.4-4.93-2.75-5.72-2.92-6.68-0.09-0.47-0.39-1.42-0.69-2.12-0.29-0.7-0.66-1.85-0.81-2.55-0.16-0.7-0.45-1.82-0.64-2.49-0.51-1.72-0.27-2.17 1.23-2.37q1.84-0.24 5.05-1.19c0.76-0.22 2.14-0.51 3.08-0.63 0.93-0.13 2.27-0.38 2.97-0.57 0.69-0.18 2.32-0.39 3.6-0.46 3.52-0.2 8.53-0.05 9.86 0.3z"/>
</svg>